/* XPM */
static char * pliskin_xpm[] = {
"64 62 9 1",
" 	c None",
".	c #030303",
"+	c #020202",
"@	c #010101",
"#	c #000000",
"$	c #040404",
"%	c #050505",
"&	c #060606",
"*	c #070707",
"                                                                ",
"                         .   .+@###+                            ",
"                       @+  .$@ +.@+#@#@@@+                      ",
"               +   .  $             @@+@@ +++.                  ",
"              $    $ +   .     ++$     +@%                      ",
"                  ++@###@%.@+$    ..      +@#+                  ",
"                 +##@####+$        +@+     ++#...               ",
"       .     + +@@#@+ #@+   .@@@++@##++  .@  +.+ $$             ",
"           . ..####. .#. .$ .#########@+  +.  $..  %            ",
"        . .@+$#.+@.####..++.  &.  +..##+. $@#   $+$             ",
"          +$ .   % $@@.               +.+  .#.   .@+            ",
"          $       %++.                   .  @@ .    .+          ",
"                   @.                     % .@ ++    $.         ",
"                  .+                         @ +#.  $  $        ",
"      %$   .     $+                            @#.   @  .       ",
"     .   $$      .                             @#% +  @         ",
"       +.     .+@#                             +# .+. @+        ",
"     .+       ...                                 #@+  . .$     ",
"    ..  . @                                      +@@    .  +    ",
"   $+  .  +                                       .  @$ +       ",
"   ++  .  @                                         $#+  . $    ",
"   #+ ..  .                                        .##+  .      ",
"   #. +$  +                                        +++   .      ",
"   @+ .@  +                                           @+  + .   ",
"   +@  #                                            $###. .     ",
"    .  #                                            +#++  $     ",
"    +  @.  +                                              @$ .  ",
"    .  .+  .                                          +.+ @#    ",
"        .  @                                         ####  #    ",
"   .       +                                         .+.   #    ",
"  $  . +   .                                               #    ",
"       $   +                                         ++@@  # +  ",
"    +  $   @                                         #### @#    ",
"    @      $                                         .++. @@    ",
"  $ .+     +                                              +$    ",
"  .  +     +                                        ...+. .     ",
"  .  ..    #@                                       +###. . .$  ",
"   +  +    @.                                       $+..  .     ",
"   .  .@ # $+                                            ++     ",
"    . ++ *  @+                                     ..++  +      ",
"    . .+ @  @#                                    .+##+  +      ",
"    . +  +   @$                                     ++$ .  .    ",
"      @  @   .@.                                 @+     $       ",
"      #  @    #$                                 #+.   +  .     ",
"      +  .+   .#+                                .@#+ +$        ",
"      +   .+   ##@                             ++  +  .         ",
"           ..  @@#$                           ++@@   .          ",
"             $  +# $                        ++ +##$ $. .        ",
"       .     %     +                        +#  .$ %@           ",
"        +. @   .  .. $.                + #. +#.   +.            ",
"         .  .  .     ++ +  +        . +. @+  @.  $.             ",
"          . .+  +    + ++ @. +  $  . $#@ ++.    $               ",
"             .+        ++ #  # @# +@$ #@  +   ..                ",
"              .#@         +  @ ## &++ @+.   ++     +            ",
"               +++.                       +$                    ",
"                   .@     +$.         .$+    .  $               ",
"                 %     $       +@+        .   $                 ",
"                  $+    .@.$+      .@+                          ",
"                   .$.                   $+                     ",
"                     ..$        @                               ",
"                          +..     +                             ",
"                                                                "};
